<?xml version="1.0" encoding="utf-8"?>
<!-- Generator: Adobe Illustrator 20.1.0, SVG Export Plug-In . SVG Version: 6.00 Build 0)  -->
<svg version="1.1" id="Layer_1" xmlns="http://www.w3.org/2000/svg" xmlns:xlink="http://www.w3.org/1999/xlink" x="0px" y="0px"
	 viewBox="0 0 38 80" style="enable-background:new 0 0 38 80;" xml:space="preserve">
<g>
	<path style="fill:#AA2528;" d="M22.8,0C18.5,0,15,3.5,15,7.7s3.5,7.7,7.7,7.7s7.7-3.5,7.7-7.7S27,0,22.8,0z M22.8,12.9
		c-2.9,0-5.2-2.3-5.2-5.2s2.3-5.2,5.2-5.2s5.2,2.3,5.2,5.2S25.6,12.9,22.8,12.9z"/>
	<path style="fill:#AA2528;" d="M32.2,26.6c-0.6-2.7-2.3-4.3-2.7-4.6c0,0-0.1-0.1-0.1-0.1c-0.8-0.3-7.1-3.2-10.1-4.9
		c-3.1-1.7-5.7-1.2-5.7-1.2s-3.1,0.3-5.5,3.7C6.2,21.8,0,37.8-0.3,38.9c-0.3,1-0.2,1.9-0.2,2.1c0,0,0.4,1.5,0.4,1.5
		c0.2,0.8,4.3,14.6,4.8,15.7c0.4,1,0.4,2.1,0.4,2.3c0,0,0,0,0,0.1C4.9,61.4,2.9,73.4,3,75c0.1,1.7,1.7,5,5.7,4.9c3.6,0,4.8-2.5,5-3
		c0,0,0-0.1,0-0.2l2.5-17.6c0-0.1,0-0.2,0-0.3c-0.3-1-2.4-7.2-2.5-7.6c-0.1-0.5,0.4-0.3,0.4-0.3l3.5,2.9c0.1,0.1,0.2,0.3,0.2,0.5
		l0,15c0,0,0,0.1,0,0.1c0.3,1.7,2.5,4,5.8,3.8c0,0,0,0,0.1,0c3.7,0.2,5-3,5.2-3.6c0-0.1,0-0.1,0-0.2c0-1.3,0-16,0-17.9
		c0-2-0.9-2.5-0.9-2.5l-10.9-9.1c-0.2-0.2-0.2-0.6,0.1-0.7c2-0.9,8.5-3.6,10.1-4.2c1.9-0.8,2.6-1.6,2.6-1.6c0.5-0.5,1.3-1.3,1.8-2.6
		C32.7,29,32.3,27.3,32.2,26.6z M12.4,61.6c-0.3,1.8-2,13.5-2.1,13.7C10.2,75.6,10,77,7.9,77c-1.7-0.1-2.1-1.7-2-2.2
		c0.1-0.5,1.7-9.5,1.7-9.5l0.8-4.6c0,0,0.1-1.1-0.1-1.9c-0.2-0.8-3.5-10-3.5-10h4.7l2.9,9.4C12.4,58.2,12.8,59.8,12.4,61.6z
		 M28.5,30.1c-1.1,1.8-2.6,2.4-2.6,2.4s-7.4,3-7.9,3.1c-0.5,0.2-0.3-0.5-0.3-0.5s0.5-1.3,0.9-2.2s1.1-1,1.1-1l4.7-1.8
		c0,0,1-0.2,1.4-1.3c0.3-0.8-0.2-1.5-0.5-1.7C25.1,27,20.8,25,20.8,25s-1-0.5-1.8-0.5c-0.8,0-1.2,1.2-1.3,1.4c0,0,0,0.1,0,0.2
		c-0.1,1,1.3,1.4,1.3,1.4s1.7,0.9-0.4,1.4c-2.1,0.4-1.9,0.7-2.3,1c-0.4,0.3-1.1,2.6-2.3,5.5c-1.2,2.9-0.9,2.3-1.4,3.4
		c-0.6,1.2,0.4,2.1,0.4,2.1s8.9,7.4,10.6,8.8c1.8,1.4,2,2.9,2,2.9l0.1,16c0,0-0.1,1.8-2.1,1.8c-2,0-2.2-1.8-2.2-1.8
		s-0.1-14.6-0.1-15c0-0.5-0.2-0.7-0.2-0.7l-4.9-3.9c0,0-3.2-2.4-4-2.9c-0.3-0.2-2.9-0.2-5.8-0.9c-0.9-0.2-4-1.3-3.4-6.6
		c0.1-0.8,6.5-15.9,8.5-18s4.7-1,4.7-1s5.7,2.7,7.7,3.7C28.8,24.9,29.1,27.9,28.5,30.1z"/>
	<path style="fill:#AA2528;" d="M29.3,40.9c0,0,0,0.4,1.5,0.1c1.4-0.4,4.2-2.2,4.2-2.2s0.9-1.1,0.1-2.2c-0.8-1.1,0.2-2.1,0.2-2.1
		l2.4-1.9c0,0,1.1-1.1-0.5-0.7c-1.4,0.4-2.4,0.9-3.5,1.4s-1.4,1.1-1.5,1.8s0.3,1.9,0.4,2.2c0.2,0.5-0.4,1-0.4,1S29.2,40.2,29.3,40.9
		C29.5,41.4,29.3,40.9,29.3,40.9z"/>
	<path style="fill:#AA2528;" d="M28.9,43.2c0,0,0.5-0.5,3.4,0.9c2.9,1.5,2.6,1.8,2.6,1.8s0.5,0.4,0.1,1.1c-0.4,0.7-0.9,1.1-0.8,1.6
		c0.2,0.4,2.2,1.8,2.9,2.5c0.7,0.7-0.2,0.6-0.2,0.6s-4.4-0.9-5.4-1.4c-1-0.5,0.6-2.1,0.6-2.1s0.6-0.6,0-1.3
		C31.6,46.2,28.9,43.7,28.9,43.2z"/>
</g>
</svg>
