<?xml version="1.0" encoding="utf-8"?>
<!-- Generator: Adobe Illustrator 20.1.0, SVG Export Plug-In . SVG Version: 6.00 Build 0)  -->
<svg version="1.1" id="Layer_1" xmlns="http://www.w3.org/2000/svg" xmlns:xlink="http://www.w3.org/1999/xlink" x="0px" y="0px"
	 viewBox="0 0 80 62" style="enable-background:new 0 0 80 62;" xml:space="preserve">
<g>
	<g>
		<path style="fill:#AA2528;" d="M78.2,7.6l-5.4-5.4c-1.5-1.5-4-1.5-5.5,0l-2.4,2.4c-2.9,2.9-7.2,3.8-11,2.3
			c-4.2-1.6-8.9-2.4-13.7-2.4s-9.5,0.8-13.7,2.4c-3.8,1.5-8.1,0.5-11-2.3l-2.4-2.4c-1.5-1.5-4-1.5-5.5,0L2.1,7.6
			c-1.5,1.5-1.5,4,0,5.5l5.6,5.6c2,2,3,4.5,3,7.3c0,7.9,5.8,15.1,15.2,18.9c3.9,1.6,6.5,5.4,6.5,9.6v2.8c0,2.2,1.8,3.9,3.9,3.9H44
			c2.2,0,3.9-1.8,3.9-3.9v-2.8c0-4.2,2.5-8,6.5-9.6c9.4-3.8,15.2-11,15.2-18.9c0-2.8,1.1-5.4,3-7.3l5.6-5.6
			C79.7,11.6,79.7,9.1,78.2,7.6z M69.7,15.8c-2.7,2.7-4.2,6.3-4.2,10.2c0,6.2-4.9,12-12.7,15.2c-5.5,2.2-9,7.4-9,13.3v2.7h-7.4v-2.7
			c0-5.9-3.5-11.1-9-13.3c-7.8-3.2-12.7-9-12.7-15.2c0-3.8-1.5-7.4-4.2-10.2l-5.5-5.5l5.3-5.3l2.3,2.3c4,4,10,5.3,15.3,3.3
			c3.7-1.4,7.9-2.2,12.2-2.2s8.5,0.8,12.2,2.2c5.3,2,11.3,0.8,15.3-3.3L70,5.1l5.3,5.3L69.7,15.8z"/>
	</g>
	<g>
		<path style="fill:#AA2528;" d="M49.3,12.5c-2.4-0.5-5-0.7-7.5-0.7c-4.8,0-9.5,0.8-13.7,2.4c-1,0.4-1.6,1.6-1.2,2.6
			c0.3,0.8,1.1,1.3,1.9,1.3c0.2,0,0.5,0,0.7-0.1c3.7-1.4,7.9-2.2,12.2-2.2c2.3,0,4.6,0.2,6.8,0.6c1.1,0.2,2.1-0.5,2.4-1.6
			C51.1,13.7,50.4,12.7,49.3,12.5z"/>
	</g>
	<g>
		<circle style="fill:#AA2528;" cx="22.3" cy="18.9" r="2"/>
	</g>
</g>
</svg>
