<?xml version="1.0" encoding="utf-8"?>
<!-- Generator: Adobe Illustrator 20.1.0, SVG Export Plug-In . SVG Version: 6.00 Build 0)  -->
<svg version="1.1" id="Layer_1" xmlns="http://www.w3.org/2000/svg" xmlns:xlink="http://www.w3.org/1999/xlink" x="0px" y="0px"
	 viewBox="0 0 69 73" style="enable-background:new 0 0 69 73;" xml:space="preserve">
<g>
	<path style="fill:#AA2528;" d="M44.6,37.5c0.8-0.2,2.7-0.8,3.5-3.3l1.8-5.2l0.7,0.2c0.3,0.1,0.7-0.1,0.8-0.4l1-2.8
		c0.1-0.3-0.1-0.7-0.4-0.8l-23.1-7.9c-0.3-0.1-0.7,0.1-0.8,0.4l-1,2.8c-0.1,0.3,0.1,0.7,0.4,0.8l0.7,0.2L26.4,27
		c-0.9,2.5-0.3,3.4,0.8,4.7l4.7,5.6l-0.5,1.5c-1.8,0.4-6.5,1.4-7.1,1.6c-0.8,0.2-2.7,0.8-3.5,3.3l-1.5,4.5l-0.7-0.2
		c-0.3-0.1-0.7,0.1-0.8,0.4l-1,2.8c-0.1,0.3,0.1,0.7,0.4,0.8l23.1,7.9c0.3,0.1,0.7-0.1,0.8-0.4l1-2.8c0.1-0.3-0.1-0.7-0.4-0.8
		l-0.7-0.2l1.6-4.6c0.9-2.5,0.3-3.4-0.8-4.7L37,40.7l0.5-1.5C39.3,38.7,43.9,37.7,44.6,37.5z M34.8,41.6l5.1,6.1
		c0.4,0.5,0.6,0.7,0.7,1c0.1,0.3,0,0.8-0.3,1.5l-1.6,4.6l-17.4-5.9l1.5-4.5c0.5-1.4,1.4-1.7,2-1.9c0.5-0.1,4.8-1.1,7.6-1.7
		c0.4-0.1,0.7-0.4,0.8-0.7l0.9-2.7c0.1-0.4,0.1-0.8-0.2-1.1l-5.1-6.1l0,0c-0.4-0.5-0.6-0.7-0.7-1c-0.1-0.3,0-0.8,0.3-1.5l1.8-5.3
		l17.4,5.9l-1.8,5.2c-0.5,1.4-1.4,1.7-2,1.9c-0.5,0.1-4.8,1.1-7.6,1.7c-0.4,0.1-0.7,0.4-0.8,0.7l-0.9,2.7
		C34.5,40.9,34.6,41.3,34.8,41.6z"/>
	<path style="fill:#AA2528;" d="M36.1,36.3c1-0.1,7.3-1.4,7.3-1.4s0.5-0.2-0.1-0.3c-1.5-0.2-4.2,0.3-7.2-0.4c-3-0.8-3.6-3.4-5.6-3.6
		c-0.4,0-0.5,0.1-0.1,0.6c0.4,0.4,3.8,4.2,4.2,4.7C35.1,36.3,35.4,36.4,36.1,36.3z"/>
	<path style="fill:#AA2528;" d="M24.5,48.3c-0.6,0.3-1,0.5,0.1,0.9c0.9,0.3,10.2,3.5,11.3,3.9c1.2,0.4,0.9-0.2,0.5-0.9
		c-0.7-1.4-2.2-3.5-4.9-4.5C28.7,46.8,26,47.7,24.5,48.3z"/>
	
		<ellipse transform="matrix(0.3221 -0.9467 0.9467 0.3221 -12.0551 58.518)" style="fill:#AA2528;" cx="34.8" cy="37.7" rx="0.4" ry="0.3"/>
	
		<ellipse transform="matrix(0.3219 -0.9468 0.9468 0.3219 -13.7958 59.0561)" style="fill:#AA2528;" cx="34.3" cy="39.2" rx="0.4" ry="0.3"/>
	
		<ellipse transform="matrix(0.3219 -0.9468 0.9468 0.3219 -15.5403 59.5859)" style="fill:#AA2528;" cx="33.8" cy="40.6" rx="0.4" ry="0.3"/>
	
		<ellipse transform="matrix(0.3219 -0.9468 0.9468 0.3219 -17.2849 60.1154)" style="fill:#AA2528;" cx="33.3" cy="42.1" rx="0.4" ry="0.3"/>
	
		<ellipse transform="matrix(0.3222 -0.9467 0.9467 0.3222 -19.0357 60.6267)" style="fill:#AA2528;" cx="32.8" cy="43.6" rx="0.4" ry="0.3"/>
	
		<ellipse transform="matrix(0.3221 -0.9467 0.9467 0.3221 -20.779 61.1592)" style="fill:#AA2528;" cx="32.3" cy="45.1" rx="0.4" ry="0.3"/>
	
		<ellipse transform="matrix(0.3218 -0.9468 0.9468 0.3218 -22.5188 61.7057)" style="fill:#AA2528;" cx="31.8" cy="46.6" rx="0.4" ry="0.3"/>
	<path style="fill:#AA2528;" d="M48.5,63.3c-0.5,0.3-1,0.6-1.6,0.8c-0.1,0-0.2,0.1-0.2,0.1c-0.1,0-0.2,0.1-0.3,0.1
		c-2.3,1.1-4.6,1.8-7.1,2.2c0,0-0.1,0-0.1,0c-0.6,0.1-1.2,0.2-1.7,0.3c0,0,0,0,0,0c-1.1,0.1-2.1,0.2-3.2,0.2
		c-12.5,0-23.2-8-27.2-19.2C7.1,47.6,7,47.4,7,47.3c-0.9-2.9-1.5-5.9-1.5-9.1C5.5,35,6,32,7,29.1C7,29,7,29,7.1,28.9
		c0.1-0.2,0.1-0.3,0.2-0.5c0-0.1,0.1-0.2,0.1-0.2c3.3-8.9,10.8-15.7,20.1-18c0,0,0,0,0,0c0.1,0,0.3-0.1,0.4-0.1c0,0,0,0,0,0
		c2-0.5,4.1-0.7,6.3-0.7l0,3c0,0.9,0.6,1.2,1.3,0.6l6.3-5.3c0.7-0.6,0.7-1.6,0-2.1l-6.3-5.2c-0.7-0.6-1.3-0.3-1.3,0.6l0,3
		C25,3.9,16.5,7.5,10.1,13.9c-0.6,0.6-1.2,1.3-1.8,2c0,0,0,0,0,0c0,0,0,0.1-0.1,0.1C3.1,21.9,0.2,29.3,0,37.2c0,0.1,0,0.1,0,0.2
		c0,0.3,0,0.5,0,0.8c0,0.4,0,0.9,0,1.3c0,0.1,0,0.1,0,0.1c0.3,7.2,2.8,13.9,7.1,19.5c0,0,0,0,0,0.1c0.4,0.5,0.9,1.1,1.3,1.6
		c0,0,0.1,0.1,0.1,0.1c0.5,0.5,0.9,1,1.4,1.5c5.1,5.1,11.5,8.4,18.5,9.6c0,0,0,0,0.1,0c0,0,0,0,0,0c1.9,0.3,3.8,0.5,5.7,0.5
		c5.1,0,9.9-1.1,14.5-3.2c0.1,0,0.2-0.1,0.3-0.2c0.1,0,0.2-0.1,0.3-0.1c0.6-0.3,1.2-0.6,1.9-1c1.3-0.8,1.8-2.4,1-3.8
		C51.5,63,49.9,62.5,48.5,63.3z"/>
	<path style="fill:#AA2528;" d="M58.2,22.1c0.5,0.8,1.4,1.2,2.3,1.2c0.5,0,1.1-0.2,1.5-0.5c1.3-0.9,1.6-2.6,0.8-3.8
		c-0.4-0.6-0.8-1.1-1.2-1.7c-0.9-1.2-2.7-1.4-3.9-0.5c-1.2,0.9-1.4,2.7-0.5,3.9C57.6,21.2,57.9,21.6,58.2,22.1z"/>
	<path style="fill:#AA2528;" d="M61.8,29.4c0.2,0.6,0.3,1.1,0.5,1.7c0.3,1.2,1.4,2.1,2.7,2.1c0.2,0,0.5,0,0.7-0.1
		c1.5-0.4,2.4-1.9,2-3.4c-0.2-0.7-0.4-1.3-0.6-2c-0.5-1.5-2-2.3-3.5-1.8C62.1,26.4,61.3,27.9,61.8,29.4z"/>
	<path style="fill:#AA2528;" d="M60,56.8c-1.2-1-2.9-0.9-3.9,0.3c-0.4,0.4-0.8,0.9-1.2,1.3c-1.1,1.1-1,2.8,0,3.9
		c0.5,0.5,1.2,0.8,1.9,0.8c0.7,0,1.4-0.3,2-0.8c0.5-0.5,1-1,1.4-1.5C61.3,59.5,61.1,57.8,60,56.8z"/>
	<path style="fill:#AA2528;" d="M66,36.4c-1.5,0-2.8,1.2-2.8,2.7c0,0.6-0.1,1.2-0.1,1.8c-0.1,1.5,1,2.9,2.5,3c0.1,0,0.2,0,0.3,0
		c1.4,0,2.6-1.1,2.7-2.5c0.1-0.7,0.1-1.4,0.1-2.1C68.7,37.7,67.5,36.4,66,36.4z"/>
	<path style="fill:#AA2528;" d="M64.7,47.1c-1.4-0.6-3,0.1-3.6,1.6c-0.2,0.5-0.4,1.1-0.7,1.6c-0.6,1.4,0,3,1.3,3.7
		c0.4,0.2,0.8,0.3,1.2,0.3c1,0,2-0.6,2.5-1.6c0.3-0.6,0.6-1.3,0.8-1.9C66.9,49.3,66.2,47.7,64.7,47.1z"/>
	<path style="fill:#AA2528;" d="M55.3,14.5c0.9-1.2,0.6-3-0.6-3.9c-0.6-0.4-1.1-0.8-1.7-1.2c-1.3-0.8-3-0.5-3.8,0.8
		c-0.8,1.3-0.5,3,0.8,3.8c0.5,0.3,1,0.7,1.4,1c0.5,0.4,1.1,0.5,1.6,0.5C54,15.6,54.8,15.2,55.3,14.5z"/>
</g>
</svg>
