<?xml version="1.0" encoding="utf-8"?>
<!-- Generator: Adobe Illustrator 20.1.0, SVG Export Plug-In . SVG Version: 6.00 Build 0)  -->
<svg version="1.1" id="Layer_1" xmlns="http://www.w3.org/2000/svg" xmlns:xlink="http://www.w3.org/1999/xlink" x="0px" y="0px"
	 viewBox="0 0 52 72" style="enable-background:new 0 0 52 72;" xml:space="preserve">
<g>
	<g>
		<g>
			<path style="fill:#AA2528;" d="M40.8,38.9c-3.6-4.6-7.1-8-7.3-8.2l-1.4-1.3l-1.4,1.3c-0.1,0.1-3.7,3.5-7.3,8.2
				c-5,6.4-7.5,12-7.5,16.5c0,8.9,7.2,16.1,16.1,16.1s16.1-7.2,16.1-16.1C48.3,50.9,45.8,45.4,40.8,38.9z M32.2,67.6
				c-6.7,0-12.2-5.5-12.2-12.2c0-3.6,2.3-8.4,6.6-14.1c2.1-2.7,4.2-5,5.5-6.4c1.3,1.4,3.4,3.7,5.5,6.4c4.3,5.6,6.6,10.5,6.6,14.1
				C44.4,62.2,38.9,67.6,32.2,67.6z"/>
		</g>
	</g>
	<g>
		<g>
			<path style="fill:#AA2528;" d="M19.6,10.4c-2.7-3.6-5.4-6.1-5.6-6.2l-1.4-1.3l-1.4,1.3c-0.1,0.1-2.8,2.7-5.6,6.2
				C1.9,15.3,0,19.7,0,23.2c0,7,5.7,12.7,12.7,12.7c7,0,12.7-5.7,12.7-12.7C25.4,19.7,23.4,15.3,19.6,10.4z M12.7,31.9
				C7.9,31.9,4,28,4,23.2c0-4.7,5.4-11.3,8.7-14.8c3.3,3.5,8.7,10.1,8.7,14.8C21.4,28,17.5,31.9,12.7,31.9z"/>
		</g>
	</g>
	<g>
		<g>
			<path style="fill:#AA2528;" d="M47.3,5.8C45.2,3.1,43.1,1.1,43,1l-1.1-1l-1.1,1c-0.1,0.1-2.2,2.1-4.3,4.8
				c-2.9,3.8-4.4,7.1-4.4,9.9c0,5.4,4.4,9.8,9.8,9.8s9.8-4.4,9.8-9.8C51.7,12.9,50.2,9.6,47.3,5.8z M41.9,22.4c-3.7,0-6.7-3-6.7-6.7
				c0-3.6,4.2-8.7,6.7-11.4c2.5,2.7,6.7,7.8,6.7,11.4C48.7,19.4,45.6,22.4,41.9,22.4z"/>
		</g>
	</g>
</g>
</svg>
