<?xml version='1.0' encoding='iso-8859-1'?>
<svg version="1.1" xmlns="http://www.w3.org/2000/svg" viewBox="0 0 189.674 189.674" xmlns:xlink="http://www.w3.org/1999/xlink" enable-background="new 0 0 189.674 189.674">
  <g>
    <path d="m166.182,69.605l-113.108-66.125c-5.22-1.74-10.441-3.48-15.661-3.48-15.661,0-29.582,12.181-29.582,29.582v130.509c8.88178e-16,15.661 12.181,29.582 29.582,29.582 5.22,0 10.441-1.74 15.661-1.74l113.108-66.124c10.441-5.22 15.661-15.661 15.661-26.102-2.84217e-14-10.441-6.961-20.882-15.661-26.102zm-8.701,33.062l-113.108,66.124c-6.96,5.22-19.141,0-19.141-10.441v-130.508c0-6.96 5.22-12.181 12.181-12.181 3.48,0 5.22,0 6.96,0l113.108,66.124c5.22,1.74 6.96,6.96 6.96,10.441 0.001,3.481-3.479,8.701-6.96,10.441z"/>
  </g>
</svg>
